<?xml version="1.0" standalone="no"?>
<!DOCTYPE svg PUBLIC "-//W3C//DTD SVG 20010904//EN"
 "http://www.w3.org/TR/2001/REC-SVG-20010904/DTD/svg10.dtd">
<svg version="1.0" xmlns="http://www.w3.org/2000/svg"
 width="200.000000pt" height="200.000000pt" viewBox="0 0 200.000000 200.000000"
 preserveAspectRatio="xMidYMid meet">
<metadata>
Created by potrace 1.11, written by Peter Selinger 2001-2013
</metadata>
<g transform="translate(0.000000,200.000000) scale(0.100000,-0.100000)"
fill="#000000" stroke="none">
<path d="M0 1396 l0 -605 28 -4 27 -4 -27 -2 c-39 -2 -35 -19 5 -24 l32 -4
-33 -1 -33 -2 2 -105 c2 -101 3 -105 23 -100 19 5 19 4 -1 -6 -13 -7 -23 -16
-23 -21 0 -11 2 -11 61 12 28 12 53 19 56 17 2 -3 -23 -14 -57 -27 -57 -21
-85 -48 -37 -36 l22 6 -23 -11 c-19 -11 -31 -29 -17 -29 3 0 55 22 117 50 61
27 113 48 115 46 2 -2 -51 -27 -117 -57 l-120 -54 0 -217 0 -218 182 0 181 0
99 37 c54 20 97 38 95 39 -2 2 -50 -12 -107 -31 -107 -36 -131 -42 -115 -26 6
5 68 28 138 51 71 23 127 44 125 46 -4 3 -238 -65 -282 -82 -9 -3 -16 -1 -16
5 0 6 47 25 105 42 58 18 103 34 101 36 -2 3 -54 -9 -115 -26 -118 -33 -135
-36 -127 -22 3 4 77 27 166 51 88 24 158 45 157 47 -2 2 -80 -15 -173 -36
-152 -36 -187 -41 -173 -26 3 2 79 22 170 44 196 47 189 52 -16 11 -147 -30
-214 -38 -170 -21 11 4 98 23 193 42 95 18 169 35 164 37 -4 1 -93 -11 -197
-27 -168 -27 -208 -31 -194 -17 2 2 85 18 184 34 210 35 204 40 -15 12 -174
-22 -193 -24 -186 -12 3 5 94 20 203 33 232 28 226 37 -10 15 -189 -18 -210
-19 -203 -8 3 5 103 17 223 28 262 23 246 30 -30 15 -178 -11 -220 -10 -206 3
2 2 143 11 314 21 171 9 312 19 315 22 5 5 -434 -4 -560 -12 -45 -3 -67 -1
-55 4 11 5 171 11 355 15 360 7 655 25 605 37 -17 4 -43 10 -58 13 -15 4 -25
11 -22 16 3 5 19 5 38 -1 58 -16 73 -8 22 12 -51 21 -78 39 -58 39 6 0 27 -7
46 -15 59 -24 56 -17 -6 18 -57 33 -71 60 -16 31 41 -21 36 -10 -7 16 -20 13
-33 28 -30 35 3 8 -2 19 -9 25 -8 7 -12 17 -8 23 3 5 -2 16 -12 24 -11 7 -15
13 -11 13 4 0 -5 16 -20 35 -14 19 -24 41 -21 49 3 7 -13 32 -38 56 -39 38
-45 41 -66 30 -13 -7 -118 -76 -233 -153 -238 -158 -317 -199 -402 -211 -11
-2 -27 -7 -34 -11 -9 -5 -11 -4 -6 3 9 15 1 15 -25 2 -10 -6 -19 -8 -19 -6 0
7 76 46 87 46 4 0 1 -5 -7 -11 -13 -9 -13 -10 0 -6 8 2 14 10 12 17 -2 8 3 10
13 6 9 -3 13 -2 10 4 -3 5 13 19 37 31 37 19 40 23 25 34 -9 6 -14 15 -10 19
4 4 -1 4 -11 0 -12 -5 -14 -9 -6 -14 7 -4 -1 -12 -20 -20 -18 -7 -27 -16 -21
-20 6 -3 -5 -14 -25 -23 -19 -10 -33 -13 -29 -7 9 15 4 13 -71 -20 -37 -17
-69 -29 -71 -27 -2 2 49 28 112 57 64 29 111 56 105 60 -6 4 7 15 29 25 22 10
38 22 35 26 -3 5 -1 9 3 9 5 0 18 7 29 15 14 11 15 14 3 9 -10 -3 -20 0 -24 6
-3 6 -3 10 2 9 13 -3 43 12 43 23 0 8 -18 5 -60 -10 -13 -5 -13 -4 0 10 8 9
17 15 20 14 3 -2 13 5 22 15 12 12 13 19 5 23 -7 2 -4 5 6 5 28 1 9 21 -21 22
-26 2 -26 2 -3 6 19 4 21 7 10 14 -10 6 -8 9 11 10 23 0 23 1 5 8 -14 6 5 10
60 15 138 12 201 20 178 24 -13 2 -23 8 -23 14 0 7 19 8 55 3 63 -7 116 1 112
18 -1 7 -12 22 -24 33 -12 12 -19 24 -16 28 3 3 -11 15 -31 27 -20 11 -36 23
-36 26 0 2 6 1 13 -3 6 -4 2 4 -11 18 -12 13 -20 27 -16 30 3 3 -15 23 -40 44
-25 21 -46 42 -46 48 0 5 -11 24 -26 43 -14 18 -22 33 -19 33 4 0 86 -76 183
-170 97 -93 179 -170 183 -170 4 0 115 72 248 159 240 158 330 205 409 214 23
3 46 9 53 13 8 4 9 3 5 -4 -9 -15 -1 -15 25 -2 10 6 19 9 19 6 0 -3 -38 -26
-85 -51 -47 -26 -83 -50 -80 -55 3 -4 -9 -13 -25 -20 -17 -7 -28 -15 -25 -18
2 -3 -3 -11 -13 -19 -16 -14 -16 -14 1 -9 12 4 16 2 11 -5 -4 -8 1 -9 17 -4
17 4 20 3 10 -3 -11 -8 -11 -11 0 -16 8 -3 3 -3 -11 0 -14 4 -22 3 -18 -1 5
-5 -2 -13 -13 -19 -25 -13 -22 -32 4 -29 29 4 19 -6 -23 -23 -22 -9 -40 -21
-40 -26 0 -7 5 -6 14 1 10 9 15 8 20 -4 3 -8 1 -15 -4 -15 -24 0 -7 -20 18
-21 19 -1 21 -3 8 -6 -15 -4 -16 -7 -5 -14 10 -6 1 -9 -26 -10 -38 -1 -38 -2
-10 -8 20 -4 -22 -11 -120 -19 -224 -19 -258 -24 -243 -33 10 -7 10 -9 -2 -9
-13 0 -13 -1 0 -10 8 -5 11 -10 6 -10 -19 0 29 -41 90 -77 35 -20 62 -39 60
-41 -2 -2 -21 7 -43 20 -61 39 -63 40 -63 30 0 -5 11 -15 25 -22 13 -7 22 -16
20 -21 -3 -4 19 -28 47 -54 29 -26 46 -43 38 -39 -8 4 -5 -4 8 -18 12 -13 22
-28 22 -32 0 -4 12 -24 27 -44 15 -20 -32 19 -103 88 l-129 125 150 -153 c83
-84 157 -157 166 -162 12 -7 75 29 260 152 258 170 310 199 379 212 49 9 51
12 49 128 l-2 110 -66 -5 -66 -5 68 11 67 10 0 504 0 503 -1000 0 -1000 0 0
-604z m1580 -216 c-52 -27 -88 -49 -80 -50 16 -1 -27 -29 -45 -29 -5 0 1 6 15
14 16 9 19 15 10 15 -16 1 168 99 185 99 6 0 -33 -22 -85 -49z m166 25 c-11
-8 -25 -15 -30 -15 -6 1 0 7 14 15 32 19 40 18 16 0z m-116 -25 c-30 -16 -59
-29 -65 -29 -5 0 15 13 45 29 30 16 60 29 65 29 6 0 -15 -13 -45 -29z m168 15
c-9 -10 -181 -75 -185 -71 -2 2 35 20 84 39 86 35 112 43 101 32z m-118 -20
c-14 -8 -29 -14 -35 -14 -5 0 1 6 15 14 14 8 30 14 35 14 6 0 -1 -6 -15 -14z
m159 0 c-8 -8 -232 -86 -236 -82 -2 3 47 23 109 45 108 39 137 47 127 37z
m-239 -35 c-8 -5 -19 -10 -25 -10 -5 0 -3 5 5 10 8 5 20 10 25 10 6 0 3 -5 -5
-10z m230 -5 c-19 -7 -42 -13 -50 -13 -8 0 1 6 20 13 19 7 42 13 50 13 8 0 -1
-6 -20 -13z m25 -26 c-33 -10 -64 -18 -70 -18 -15 1 97 38 115 37 8 0 -12 -8
-45 -19z m-325 1 c-8 -5 -19 -10 -25 -10 -5 0 -3 5 5 10 8 5 20 10 25 10 6 0
3 -5 -5 -10z m60 0 c-8 -5 -19 -10 -25 -10 -5 0 -3 5 5 10 8 5 20 10 25 10 6
0 3 -5 -5 -10z m-50 -20 c-8 -5 -19 -10 -25 -10 -5 0 -3 5 5 10 8 5 20 10 25
10 6 0 3 -5 -5 -10z m397 4 c-3 -3 -12 -4 -19 -1 -8 3 -5 6 6 6 11 1 17 -2 13
-5z m-182 -14 c-11 -5 -27 -9 -35 -9 -9 0 -8 4 5 9 11 5 27 9 35 9 9 0 8 -4
-5 -9z m142 4 c-3 -3 -12 -4 -19 -1 -8 3 -5 6 6 6 11 1 17 -2 13 -5z m-40 -10
c-3 -3 -12 -4 -19 -1 -8 3 -5 6 6 6 11 1 17 -2 13 -5z m-1232 -53 c-3 -3 -18
8 -33 23 l-27 29 32 -23 c18 -13 30 -26 28 -29z m1192 43 c-3 -3 -12 -4 -19
-1 -8 3 -5 6 6 6 11 1 17 -2 13 -5z m138 -3 c-6 -5 -30 -11 -55 -14 l-45 -6
50 14 c28 7 52 14 55 14 2 1 0 -3 -5 -8z m-288 -7 c-3 -3 -12 -4 -19 -1 -8 3
-5 6 6 6 11 1 17 -2 13 -5z m110 0 c-3 -3 -12 -4 -19 -1 -8 3 -5 6 6 6 11 1
17 -2 13 -5z m-40 -10 c-3 -3 -12 -4 -19 -1 -8 3 -5 6 6 6 11 1 17 -2 13 -5z
m-40 -10 c-3 -3 -12 -4 -19 -1 -8 3 -5 6 6 6 11 1 17 -2 13 -5z m146 -1 c-7
-2 -19 -2 -25 0 -7 3 -2 5 12 5 14 0 19 -2 13 -5z m-1203 -49 c0 -3 -13 4 -30
16 -16 12 -30 24 -30 26 0 3 14 -4 30 -16 17 -12 30 -24 30 -26z m1017 40 c-3
-3 -12 -4 -19 -1 -8 3 -5 6 6 6 11 1 17 -2 13 -5z m140 0 c-3 -3 -12 -4 -19
-1 -8 3 -5 6 6 6 11 1 17 -2 13 -5z m168 -4 c-16 -4 -41 -8 -55 -8 -22 0 -22
1 5 8 17 4 41 8 55 8 22 0 22 -1 -5 -8z m-218 -6 c-3 -3 -12 -4 -19 -1 -8 3
-5 6 6 6 11 1 17 -2 13 -5z m-40 -10 c-3 -3 -12 -4 -19 -1 -8 3 -5 6 6 6 11 1
17 -2 13 -5z m166 -1 c-7 -2 -21 -2 -30 0 -10 3 -4 5 12 5 17 0 24 -2 18 -5z
m-216 -9 c-3 -3 -12 -4 -19 -1 -8 3 -5 6 6 6 11 1 17 -2 13 -5z m156 -1 c-7
-2 -19 -2 -25 0 -7 3 -2 5 12 5 14 0 19 -2 13 -5z m-56 -9 c-3 -3 -12 -4 -19
-1 -8 3 -5 6 6 6 11 1 17 -2 13 -5z m-1127 -19 c17 -9 30 -18 30 -21 0 -4 -59
23 -69 32 -10 9 13 3 39 -11z m1067 9 c-3 -3 -12 -4 -19 -1 -8 3 -5 6 6 6 11
1 17 -2 13 -5z m146 -11 c-7 -2 -21 -2 -30 0 -10 3 -4 5 12 5 17 0 24 -2 18
-5z m-70 -10 c-7 -2 -21 -2 -30 0 -10 3 -4 5 12 5 17 0 24 -2 18 -5z m-76 -9
c-3 -3 -12 -4 -19 -1 -8 3 -5 6 6 6 11 1 17 -2 13 -5z m266 -1 c-13 -2 -33 -2
-45 0 -13 2 -3 4 22 4 25 0 35 -2 23 -4z m-336 -9 c-3 -3 -12 -4 -19 -1 -8 3
-5 6 6 6 11 1 17 -2 13 -5z m251 -1 c-10 -2 -28 -2 -40 0 -13 2 -5 4 17 4 22
1 32 -1 23 -4z m-105 -10 c-7 -2 -21 -2 -30 0 -10 3 -4 5 12 5 17 0 24 -2 18
-5z m-96 -9 c-3 -3 -12 -4 -19 -1 -8 3 -5 6 6 6 11 1 17 -2 13 -5z m276 -11
c-18 -2 -48 -2 -65 0 -18 2 -4 4 32 4 36 0 50 -2 33 -4z m-150 -10 c-13 -2
-33 -2 -45 0 -13 2 -3 4 22 4 25 0 35 -2 23 -4z m-1176 -9 c-3 -3 -12 -4 -19
-1 -8 3 -5 6 6 6 11 1 17 -2 13 -5z m1016 -1 c-7 -2 -19 -2 -25 0 -7 3 -2 5
12 5 14 0 19 -2 13 -5z m-976 -9 c-3 -3 -12 -4 -19 -1 -8 3 -5 6 6 6 11 1 17
-2 13 -5z m1276 -11 c-29 -2 -78 -2 -110 0 -32 2 -8 3 52 3 61 0 87 -1 58 -3z
m-335 -10 c-10 -2 -28 -2 -40 0 -13 2 -5 4 17 4 22 1 32 -1 23 -4z m-531 -49
c-3 -3 -12 -4 -19 -1 -8 3 -5 6 6 6 11 1 17 -2 13 -5z m60 -10 c-3 -3 -12 -4
-19 -1 -8 3 -5 6 6 6 11 1 17 -2 13 -5z m-980 -30 c-3 -3 -12 -4 -19 -1 -8 3
-5 6 6 6 11 1 17 -2 13 -5z m968 -4 c13 -5 14 -9 5 -9 -8 0 -24 4 -35 9 -13 5
-14 9 -5 9 8 0 24 -4 35 -9z m-184 -27 c13 -16 12 -17 -3 -4 -10 7 -18 15 -18
17 0 8 8 3 21 -13z m-814 1 c-3 -3 -12 -4 -19 -1 -8 3 -5 6 6 6 11 1 17 -2 13
-5z m993 -14 c19 -11 31 -19 25 -19 -5 0 -26 8 -45 19 -19 11 -30 19 -25 19 6
0 26 -8 45 -19z m-1077 3 c-7 -2 -19 -2 -25 0 -7 3 -2 5 12 5 14 0 19 -2 13
-5z m124 -9 c-3 -3 -12 -4 -19 -1 -8 3 -5 6 6 6 11 1 17 -2 13 -5z m-60 -10
c-3 -3 -12 -4 -19 -1 -8 3 -5 6 6 6 11 1 17 -2 13 -5z m-64 -11 c-7 -2 -19 -2
-25 0 -7 3 -2 5 12 5 14 0 19 -2 13 -5z m84 -39 c-3 -3 -12 -4 -19 -1 -8 3 -5
6 6 6 11 1 17 -2 13 -5z m1043 -41 c0 -7 -39 17 -46 28 -3 6 5 3 20 -6 14 -10
26 -19 26 -22z m-1133 21 c-3 -3 -12 -4 -19 -1 -8 3 -5 6 6 6 11 1 17 -2 13
-5z m120 0 c-3 -3 -12 -4 -19 -1 -8 3 -5 6 6 6 11 1 17 -2 13 -5z m-110 -30
c-3 -3 -12 -4 -19 -1 -8 3 -5 6 6 6 11 1 17 -2 13 -5z m48 -14 c-11 -5 -27 -9
-35 -9 -9 0 -8 4 5 9 11 5 27 9 35 9 9 0 8 -4 -5 -9z m95 -20 c-8 -5 -19 -10
-25 -10 -5 0 -3 5 5 10 8 5 20 10 25 10 6 0 3 -5 -5 -10z m100 -45 c-14 -8
-29 -14 -35 -14 -5 0 1 6 15 14 14 8 30 14 35 14 6 0 -1 -6 -15 -14z m-160 -5
c-8 -5 -19 -10 -25 -10 -5 0 -3 5 5 10 8 5 20 10 25 10 6 0 3 -5 -5 -10z m-50
-20 c-8 -5 -19 -10 -25 -10 -5 0 -3 5 5 10 8 5 20 10 25 10 6 0 3 -5 -5 -10z
m50 -55 c0 -2 -10 -9 -22 -15 -22 -11 -22 -10 -4 4 21 17 26 19 26 11z"/>
<path d="M1533 1203 c0 -9 6 -9 21 -1 30 15 30 16 3 14 -13 0 -24 -6 -24 -13z"/>
<path d="M200 500 c-8 -5 -10 -10 -5 -10 6 0 17 5 25 10 8 5 11 10 5 10 -5 0
-17 -5 -25 -10z"/>
<path d="M1657 350 c-75 -4 -140 -10 -144 -13 -3 -4 9 -7 28 -7 19 0 41 -5 49
-11 11 -8 0 -9 -42 -6 -32 3 -58 4 -58 2 0 -2 25 -12 55 -21 30 -10 55 -21 55
-26 0 -8 -35 -2 -78 13 -46 17 -36 8 23 -23 33 -17 55 -33 48 -35 -6 -2 -26 3
-43 12 -52 27 -44 11 10 -20 28 -16 50 -33 50 -37 0 -12 -13 -10 -40 8 -14 9
-7 0 15 -21 26 -24 33 -35 20 -31 -15 5 -13 1 8 -15 15 -11 24 -25 21 -31 -4
-6 0 -14 7 -19 8 -4 14 -12 14 -16 1 -4 7 -18 15 -30 14 -22 20 -23 172 -23
l158 0 0 180 0 180 -102 -2 c-57 0 -165 -4 -241 -8z"/>
<path d="M1064 165 l-249 -165 420 0 420 0 -155 156 c-85 85 -162 159 -171
164 -12 7 -76 -30 -265 -155z"/>
<path d="M568 243 c7 -3 16 -2 19 1 4 3 -2 6 -13 5 -11 0 -14 -3 -6 -6z"/>
<path d="M608 223 c7 -3 16 -2 19 1 4 3 -2 6 -13 5 -11 0 -14 -3 -6 -6z"/>
<path d="M588 193 c7 -3 16 -2 19 1 4 3 -2 6 -13 5 -11 0 -14 -3 -6 -6z"/>
<path d="M528 123 c7 -3 16 -2 19 1 4 3 -2 6 -13 5 -11 0 -14 -3 -6 -6z"/>
<path d="M495 29 c-38 -16 -58 -27 -43 -24 30 6 140 53 123 53 -5 0 -41 -13
-80 -29z"/>
<path d="M520 10 c-8 -5 -10 -10 -5 -10 6 0 17 5 25 10 8 5 11 10 5 10 -5 0
-17 -5 -25 -10z"/>
</g>
</svg>
